:SAMPLES-PER-SECOND 30
:FULLY-SPECIFIED
:DEGREES
366
root  35.04217854 36.50329169 -14.95862195 8.906991005 -0.8642395735 2.92440176
lowerback  -8.610050201 -0.01346908882 0.9613360167
upperback  -3.823519945 -0.4310159981 -2.674043417
thorax  0.8416990042 -0.4085710049 -3.345210075
lowerneck  -15.7869997 -1.853800058 -1.305850029
upperneck  21.30690002 -2.801536083 4.823810101
head  9.423269272 -0.6135550737 1.563179731
lclavicle  0 -4.497500157e-015 -2.743230041e-014
lhumerus  -44.55879974 26.1243 70.25140381
lradius  -0.3643949032 -6.507048965e-006 29.09759903
lwrist  4.824992743e-007 -3.790274832e-007 -28.3029995
lhand  -4.405300586e-031 -36.72040176 -10.72439957
lfingers  90 7.125020027 -90
lthumb  94.74225044 -25.56571091 100.8814038
rclavicle  0 -4.497500157e-015 -2.743230041e-014
rhumerus  -44.86940002 -16.54459953 -74.21209717
rradius  -5.16745672e-007 2.214343908e-008 70.3757019
rwrist  -3.062178075e-005 0.01194404531 -166.3350067
rhand  -1.775242907e-031 5.986219883 -7.881830215
rfingers  -90 -7.125020027 -90
rthumb  -84.88329923 -8.341505645 -58.31643225
rfemur  -12.59577751 15.32736778 13.53364277
rtibia  -0.9588539004 0.454151243 21.32454491
rfoot  -0.6147010922 -19.81794548 -38.97862244
rtoes  4.099939364 19.59211694 -102.066185
lfemur  -10.29442501 -17.59273911 -18.33666992
ltibia  0.8272752762 0.3465439677 16.77440643
lfoot  0.4688448012 -27.22694588 35.44216537
ltoes  -8.506763157 -18.16811184 -115.6267749
367
root  35.02956601 36.50243264 -14.95677317 8.984300613 -0.7705674767 2.89132452
lowerback  -8.596299171 -0.04776131734 0.9531282187
upperback  -3.773279905 -0.4692980051 -2.672660112
thorax  0.8836380243 -0.4240860045 -3.344569921
lowerneck  -15.81719971 -1.845289946 -1.277510047
upperneck  21.29640007 -2.794400215 4.812349796
head  9.421509743 -0.6129992604 1.566739917
lclavicle  0 -4.497500157e-015 -2.743230041e-014
lhumerus  -44.46009827 26.00250053 70.39839935
lradius  -0.3658072948 -6.507048965e-006 29.09939766
lwrist  4.824992743e-007 -3.790274832e-007 -28.3010006
lhand  -4.405300586e-031 -36.72040176 -10.72439957
lfingers  90 7.125020027 -90
lthumb  94.74225044 -25.56571091 100.8814038
rclavicle  0 -4.497500157e-015 -2.743230041e-014
rhumerus  -44.72069931 -16.86120033 -74.00569916
rradius  -5.16745672e-007 2.214343908e-008 68.90709686
rwrist  -3.062178075e-005 0.01194404531 -165.5099945
rhand  -1.775242907e-031 5.986219883 -7.881830215
rfingers  -90 -7.125020027 -90
rthumb  -84.88329923 -8.341505645 -58.31643225
rfemur  -12.67249012 15.31360722 13.57818127
rtibia  -0.9569485188 0.4923174083 21.32666969
rfoot  -0.6236633658 -19.74681854 -39.04196167
rtoes  4.099939364 19.59211694 -102.066185
lfemur  -10.39818859 -17.63385773 -18.23369408
ltibia  0.813439846 0.4202716351 16.79981422
lfoot  0.5007024407 -27.35164833 35.46455383
ltoes  -8.506763157 -18.16811184 -115.6267749
368
root  35.02535482 36.50224941 -14.95609133 8.966380119 -0.8272448778 2.889571428
lowerback  -8.606590271 -0.02657683752 0.959143579
upperback  -3.779030085 -0.4423109889 -2.669539928
thorax  0.8851100206 -0.4109599888 -3.342370033
lowerneck  -15.81849957 -1.842239976 -1.271589994
upperneck  21.29700089 -2.795219898 4.830719948
head  9.41999054 -0.6124683022 1.56851244
lclavicle  0 -4.497500157e-015 -2.743230041e-014
lhumerus  -44.39250183 25.86930084 70.52349854
lradius  -0.3672170639 -6.507048965e-006 29.13859749
lwrist  4.824992743e-007 -3.790274832e-007 -28.2010994
lhand  -4.405300586e-031 -36.72040176 -10.72439957
lfingers  90 7.125020027 -90
lthumb  94.74225044 -25.56571091 100.8814038
rclavicle  0 -4.497500157e-015 -2.743230041e-014
rhumerus  -44.61000061 -17.21949959 -73.7276001
rradius  -5.16745672e-007 2.214343908e-008 67.38829803
rwrist  -3.062178075e-005 0.01194404531 -164.9960022
rhand  -1.775242907e-031 5.986219883 -7.881830215
rfingers  -90 -7.125020027 -90
rthumb  -84.88329923 -8.341505645 -58.31643225
rfemur  -12.63997841 15.33156967 13.57925129
rtibia  -0.955928266 0.4564460516 21.29153824
rfoot  -0.6161629558 -19.81749535 -39.03496933
rtoes  4.099939364 19.59211694 -102.066185
lfemur  -10.39492798 -17.63559341 -18.23482132
ltibia  0.802544713 0.3772718012 16.83128548
lfoot  0.4846355617 -27.27584076 35.4447937
ltoes  -8.506763157 -18.16811184 -115.6267749
369
root  35.02433957 36.50505787 -14.9538701 8.923877716 -0.9365227818 2.89717555
lowerback  -8.590239525 0.02951516397 1.016380787
upperback  -3.814209938 -0.376410991 -2.695529938
thorax  0.8434309959 -0.3813979924 -3.395329952
lowerneck  -15.78489971 -1.84149003 -1.224920034
upperneck  21.26939964 -2.805070162 4.833570004
head  9.407645226 -0.6114305258 1.557345867
lclavicle  0 -4.497500157e-015 -2.743230041e-014
lhumerus  -44.32509995 25.71489906 70.61820221
lradius  -0.3686241806 -6.507048965e-006 29.17270279
lwrist  4.824992743e-007 -3.790274832e-007 -28.00939941
lhand  -4.405300586e-031 -36.72040176 -10.72439957
lfingers  90 7.125020027 -90
lthumb  94.74225044 -25.56571091 100.8814038
rclavicle  0 -4.497500157e-015 -2.743230041e-014
rhumerus  -44.48870087 -17.69779778 -73.53359985
rradius  -5.16745672e-007 2.214343908e-008 65.79039764
rwrist  -3.062178075e-005 0.01194404531 -164.326004
rhand  -1.775242907e-031 5.986219883 -7.881830215
rfingers  -90 -7.125020027 -90
rthumb  -84.88329923 -8.341505645 -58.31643225
rfemur  -12.57784843 15.37963009 13.57752609
rtibia  -0.956491828 0.4346792996 21.24345398
rfoot  -0.5836575031 -19.84244537 -38.99088669
rtoes  4.099939364 19.59211694 -102.066185
lfemur  -10.34483337 -17.66278267 -18.27433586
ltibia  0.8074226975 0.3031818569 16.84538269
lfoot  0.4794768989 -27.13721085 35.48848343
ltoes  -8.506763157 -18.16811184 -115.6267749
